<?xml version="1.0" encoding="UTF-8" standalone="no"?>
<!DOCTYPE svg PUBLIC "-//W3C//DTD SVG 1.1//EN" "http://www.w3.org/Graphics/SVG/1.1/DTD/svg11.dtd">
<svg width="100%" height="100%" viewBox="0 0 404 1195" version="1.1" xmlns="http://www.w3.org/2000/svg" xmlns:xlink="http://www.w3.org/1999/xlink" xml:space="preserve" xmlns:serif="http://www.serif.com/" style="fill-rule:evenodd;clip-rule:evenodd;stroke-linejoin:round;stroke-miterlimit:1.41421;">
    <g transform="matrix(1,0,0,1,-1136.35,-607.733)">
        <g transform="matrix(1.75882,0.681992,-0.332517,0.857542,979.016,334.117)">
            <path d="M343.117,135C316.506,135 291.265,159.202 274.2,201.081C257.135,242.959 250.003,298.202 254.726,351.914C277.123,597.108 276.438,767.743 245.035,822.918C245.035,822.918 247.211,821.495 250.915,819.073C302.762,785.176 335.417,680.186 328.548,569.468C313.538,338.068 316.031,179.924 343.117,135Z" style="fill:rgb(255,255,255);"/>
        </g>
        <g transform="matrix(1.75882,-0.681992,-0.332517,-0.857542,979.811,2079.41)">
            <path d="M343.117,135C316.506,135 291.265,159.202 274.2,201.081C257.135,242.959 250.003,298.202 254.726,351.914C277.123,597.108 276.438,767.743 245.035,822.918C245.035,822.918 245.914,822.343 247.506,821.302C301.223,786.183 335.105,677.525 328.12,562.781C313.588,335.023 316.293,179.49 343.117,135Z" style="fill:rgb(255,255,255);"/>
        </g>
    </g>
</svg>
